<?xml version="1.0" standalone="no"?>
<!DOCTYPE svg PUBLIC "-//W3C//DTD SVG 20010904//EN"
 "http://www.w3.org/TR/2001/REC-SVG-20010904/DTD/svg10.dtd">
<svg version="1.0" xmlns="http://www.w3.org/2000/svg"
 width="700.000000pt" height="700.000000pt" viewBox="0 0 700.000000 700.000000"
 preserveAspectRatio="xMidYMid meet">
<metadata>
Created by potrace 1.14, written by Peter Selinger 2001-2017
</metadata>
<g transform="translate(0.000000,700.000000) scale(0.100000,-0.100000)"
fill="#000000" stroke="none">
<path d="M3425 6814 c-163 -186 -265 -379 -325 -619 -33 -130 -42 -196 -43
-327 0 -54 -2 -98 -4 -98 -3 0 -30 20 -61 43 -109 84 -165 119 -271 172 -193
97 -363 144 -528 148 l-88 2 1 -30 c1 -16 4 -50 8 -75 3 -25 9 -65 12 -90 8
-55 54 -216 83 -287 155 -389 474 -690 867 -822 191 -64 444 -78 652 -36 12 3
34 7 50 10 48 10 154 47 237 83 259 113 487 322 643 587 70 119 137 300 162
433 5 31 12 68 15 82 3 13 7 52 11 86 l6 62 -89 -3 c-239 -9 -536 -122 -758
-290 -55 -41 -102 -75 -105 -75 -3 0 -5 44 -4 97 2 340 -144 711 -376 956
l-45 48 -50 -57z"/>
<path d="M2307 4364 c-1 -1 -119 -5 -262 -8 -143 -3 -278 -8 -300 -11 -22 -2
-64 -7 -93 -10 -122 -14 -193 -50 -298 -152 -155 -150 -216 -302 -208 -516 4
-117 17 -176 56 -252 26 -52 278 -505 336 -605 24 -40 118 -205 152 -265 12
-22 46 -80 75 -130 29 -49 95 -164 147 -255 183 -318 462 -797 611 -1050 83
-140 155 -264 161 -275 31 -57 273 -455 294 -483 56 -74 227 -176 339 -202
215 -49 497 28 633 173 16 18 74 105 127 194 54 89 110 182 125 205 15 24 31
50 35 58 7 15 235 403 253 430 5 8 30 51 55 95 25 44 55 96 67 115 73 125 299
513 320 550 14 25 75 131 136 235 60 105 118 204 128 222 50 86 270 470 279
488 6 11 56 99 110 195 54 96 110 197 124 223 14 27 34 63 43 80 32 58 49 131
55 233 12 209 -43 367 -179 510 -107 113 -205 167 -325 179 -32 3 -74 7 -93
10 -94 12 -592 18 -1693 19 -665 0 -1209 0 -1210 0z m175 -568 c146 -14 184
-37 182 -110 -2 -59 -40 -136 -221 -456 -22 -38 -120 -201 -143 -238 -32 -49
-124 -65 -171 -29 -36 28 -202 308 -327 553 -88 173 -92 207 -32 245 35 22 65
28 177 35 54 4 99 7 100 8 5 4 375 -3 435 -8z m1258 0 c222 -18 247 -80 125
-311 -93 -175 -248 -433 -293 -486 -43 -51 -92 -65 -162 -44 -8 3 -29 26 -46
52 -110 168 -354 631 -354 671 0 79 58 110 223 119 61 3 113 6 114 7 5 4 330
-3 393 -8z m1281 0 c155 -12 213 -47 202 -119 -7 -50 -218 -446 -336 -630 -37
-59 -58 -81 -86 -93 -53 -22 -104 -10 -139 32 -26 31 -154 244 -225 374 -17
30 -47 85 -67 121 -48 85 -82 175 -82 217 0 65 50 89 209 99 54 3 99 6 100 7
6 4 356 -3 424 -8z m-1814 -1105 c46 -13 103 -71 103 -105 0 -42 -330 -631
-390 -696 -45 -49 -75 -56 -131 -27 -31 16 -56 41 -87 87 -82 122 -180 294
-282 492 -69 134 -75 175 -35 212 27 25 51 32 150 42 33 4 61 7 62 8 11 9 576
-3 610 -13z m1238 4 c78 -10 126 -33 143 -68 12 -25 12 -35 -4 -75 -35 -95
-203 -402 -310 -569 -102 -157 -187 -180 -262 -70 -81 117 -372 649 -372 679
0 8 17 33 39 56 39 41 42 42 151 55 50 6 557 0 615 -8z m-590 -1105 c124 -38
116 -104 -53 -398 -143 -252 -220 -377 -256 -415 -29 -31 -87 -37 -123 -12
-31 22 -113 148 -245 380 -113 198 -168 313 -168 355 0 55 46 87 143 100 96
12 654 5 702 -10z"/>
</g>
</svg>
